<svg width="24" height="24" viewBox="0 0 24 24" xmlns="http://www.w3.org/2000/svg" role="img" aria-label="BeardCat">
  <!-- rounded cat ears -->
  <path fill="currentColor" d="M4.3 8 Q3.7 3.8 5.3 2.8 Q6.3 3.3 8.9 7.5 Q6.1 7.4 4.3 8 Z M19.7 8 Q20.3 3.8 18.7 2.8 Q17.7 3.3 15.1 7.5 Q17.9 7.4 19.7 8 Z"/>
  <!-- beard -->
  <path fill="currentColor" d="M6 9.2 C5.6 12.2 5.7 15.2 6.5 17.8 C7.5 21 9.6 22.4 12 22.4 C14.4 22.4 16.5 21 17.5 17.8 C18.3 15.2 18.4 12.2 18 9.2 C16.5 10.5 14.6 11.1 12.8 10.7 C12.4 10.6 12.1 10.3 12 9.9 C11.9 10.3 11.6 10.6 11.2 10.7 C9.4 11.1 7.5 10.5 6 9.2 Z"/>
  <!-- sunglasses -->
  <g fill="currentColor">
    <rect x="3.6" y="6.6" width="7.2" height="4.4" rx="1.7"/>
    <rect x="13.2" y="6.6" width="7.2" height="4.4" rx="1.7"/>
    <rect x="10.5" y="7.9" width="3" height="1.5" rx=".4"/>
  </g>
</svg>
